<?xml version="1.0" encoding="UTF-8"?>
<!DOCTYPE svg PUBLIC "-//W3C//DTD SVG 1.1//EN" "http://www.w3.org/Graphics/SVG/1.1/DTD/svg11.dtd">
<!-- Creator: CorelDRAW -->
<svg xmlns="http://www.w3.org/2000/svg" xml:space="preserve" width="2048px" height="2048px" style="shape-rendering:geometricPrecision; text-rendering:geometricPrecision; image-rendering:optimizeQuality; fill-rule:evenodd; clip-rule:evenodd"
viewBox="0 0 2048 2048"
 xmlns:xlink="http://www.w3.org/1999/xlink">
 <defs>
  <style type="text/css">
   <![CDATA[
    .fil2 {fill:none}
    .fil1 {fill:#1565C0}
    .fil0 {fill:#1E88E5}
    .fil7 {fill:#9BA53F}
    .fil6 {fill:#D4E157}
    .fil3 {fill:#FFB74D;fill-rule:nonzero}
    .fil4 {fill:#FFCC80;fill-rule:nonzero}
    .fil5 {fill:#FFD28E;fill-rule:nonzero}
   ]]>
  </style>
   <clipPath id="id0">
    <path d="M1024 -0.0011811c565.539,0 1024,458.462 1024,1024 0,565.539 -458.462,1024 -1024,1024 -565.539,0 -1024,-458.462 -1024,-1024 0,-565.539 458.462,-1024 1024,-1024z"/>
   </clipPath>
 </defs>
 <g id="Layer_x0020_1">
  <metadata id="CorelCorpID_0Corel-Layer"/>
  <path class="fil0" d="M1024 -0.0011811c565.539,0 1024,458.462 1024,1024 0,565.539 -458.462,1024 -1024,1024 -565.539,0 -1024,-458.462 -1024,-1024 0,-565.539 458.462,-1024 1024,-1024z"/>
  <g style="clip-path:url(#id0)">
   <g id="_451243088">
    <g>
     <polygon id="_3305087921" class="fil1" points="1421.27,505.419 2557.15,1641.3 2558.42,1642.99 2559.52,1644.81 2560.45,1646.73 2561.19,1648.75 2561.73,1650.86 2562.06,1653.04 2562.18,1655.29 1426.29,519.407 1426.18,517.158 1425.85,514.975 1425.31,512.867 1424.57,510.847 1423.64,508.924 1422.54,507.111 "/>
     <polygon id="_330508840" class="fil1" points="1426.29,519.407 2562.18,1655.29 2562.08,1660.09 2561.82,1665.4 2561.39,1671.19 2560.81,1677.44 2560.08,1684.1 2559.21,1691.14 2558.22,1698.54 2557.12,1706.25 2555.91,1714.25 2554.6,1722.5 2553.21,1730.98 2551.74,1739.64 2550.2,1748.46 2548.61,1757.4 2546.96,1766.43 2545.28,1775.52 2543.58,1784.64 2541.85,1793.75 2540.12,1802.82 2538.39,1811.81 2536.67,1820.71 2534.97,1829.46 2533.3,1838.05 2531.67,1846.43 2530.09,1854.58 2528.57,1862.46 2527.12,1870.04 2525.75,1877.28 2524.47,1884.17 2523.29,1890.65 2522.22,1896.7 2521.26,1902.29 1385.38,766.41 1386.34,760.819 1387.41,754.768 1388.59,748.283 1389.87,741.402 1391.24,734.155 1392.69,726.576 1394.21,718.695 1395.79,710.548 1397.42,702.166 1399.08,693.58 1400.78,684.825 1402.51,675.932 1404.24,666.936 1405.97,657.866 1407.7,648.756 1409.4,639.641 1411.08,630.55 1412.72,621.518 1414.32,612.576 1415.86,603.758 1417.33,595.094 1418.72,586.62 1420.03,578.366 1421.24,570.367 1422.34,562.653 1423.33,555.258 1424.2,548.215 1424.93,541.555 1425.51,535.311 1425.94,529.518 1426.2,524.206 "/>
     <polygon id="_330510736" class="fil1" points="1106.81,523.014 2242.69,1658.9 2242.65,1658.9 1106.77,523.021 "/>
     <path id="_330510640" class="fil1" d="M2134.89 1666.26l0 0zm-1135.88 -1135.88l0 0z"/>
     <polygon id="_330510400" class="fil1" points="1005.27,553.478 2141.15,1689.36 2091.5,1911.2 955.624,775.316 "/>
     <polygon id="_330510424" class="fil1" points="1187.82,849.369 2323.7,1985.25 2321.74,1983.24 1185.86,847.359 "/>
     <polygon id="_330510664" class="fil1" points="1241.37,879.405 2377.26,2015.29 2375.3,2014.83 2373.37,2014.33 2371.46,2013.8 2369.56,2013.24 2367.68,2012.64 2365.81,2012.01 2363.96,2011.35 2362.13,2010.66 2360.32,2009.93 2358.53,2009.18 2356.75,2008.39 2355,2007.57 2353.25,2006.72 2351.53,2005.84 2349.83,2004.93 2348.14,2004 2346.48,2003.03 2344.83,2002.03 2343.2,2001.01 2341.58,1999.95 2339.99,1998.87 2338.41,1997.77 2336.86,1996.63 2335.32,1995.47 2333.8,1994.28 2332.3,1993.07 2330.82,1991.83 2329.36,1990.56 2327.92,1989.27 2326.49,1987.96 2325.09,1986.61 2323.7,1985.25 1187.82,849.369 1189.21,850.732 1190.61,852.073 1192.03,853.387 1193.48,854.678 1194.94,855.943 1196.42,857.183 1197.92,858.398 1199.44,859.586 1200.98,860.748 1202.53,861.883 1204.11,862.991 1205.7,864.072 1207.32,865.124 1208.95,866.149 1210.6,867.146 1212.26,868.113 1213.95,869.051 1215.65,869.961 1217.37,870.839 1219.11,871.688 1220.87,872.507 1222.65,873.295 1224.44,874.052 1226.25,874.777 1228.08,875.47 1229.93,876.132 1231.79,876.76 1233.68,877.357 1235.57,877.919 1237.49,878.448 1239.42,878.944 "/>
     <polygon id="_330510880" class="fil1" points="789.008,879.757 1924.89,2015.64 1923.25,2015.38 1921.62,2015.11 1919.99,2014.81 1918.36,2014.51 1916.73,2014.18 1915.11,2013.84 1913.5,2013.48 1911.89,2013.11 1910.28,2012.72 1908.68,2012.31 1907.08,2011.89 1905.49,2011.45 1903.9,2010.99 1902.32,2010.52 1900.74,2010.03 1899.17,2009.52 1897.61,2009 1896.05,2008.46 1894.5,2007.9 1892.96,2007.33 1891.42,2006.74 1889.89,2006.14 1888.36,2005.51 1886.85,2004.88 1885.34,2004.22 1883.84,2003.55 1882.35,2002.86 1880.86,2002.16 1879.39,2001.44 1877.92,2000.7 1876.46,1999.94 1875.01,1999.17 739.133,863.29 740.582,864.061 742.04,864.814 743.507,865.553 744.982,866.273 746.466,866.978 747.958,867.667 749.458,868.338 750.967,868.993 752.482,869.632 754.006,870.253 755.536,870.859 757.074,871.448 758.619,872.02 760.17,872.577 761.728,873.115 763.292,873.638 764.861,874.145 766.438,874.634 768.019,875.108 769.606,875.565 771.199,876.004 772.796,876.428 774.399,876.836 776.006,877.227 777.617,877.6 779.233,877.958 780.853,878.299 782.477,878.624 784.105,878.931 785.736,879.223 787.371,879.498 "/>
     <polygon id="_330510496" class="fil1" points="739.133,863.29 1875.01,1999.17 1872.02,1997.51 1869.07,1995.78 1866.16,1993.98 1863.3,1992.11 1860.49,1990.17 1857.72,1988.16 1855,1986.08 1852.33,1983.92 1849.72,1981.7 1847.16,1979.41 1844.66,1977.05 708.781,841.164 711.283,843.527 713.84,845.82 716.454,848.042 719.119,850.194 721.837,852.275 724.606,854.286 727.421,856.228 730.283,858.099 733.191,859.899 736.142,861.629 "/>
     <path id="_330510928" class="fil1" d="M1762.51 1668.78l0 0zm-1135.88 -1135.88l0 0z"/>
     <path id="_330510976" class="fil1" d="M1762.75 1668.48l0 0zm-1135.88 -1135.88l0 0z"/>
     <polygon id="_330510712" class="fil1" points="1385.38,766.41 2521.26,1902.29 2520.74,1905.29 2520.16,1908.28 2519.54,1911.25 2518.86,1914.2 2518.14,1917.14 2517.36,1920.05 2516.54,1922.95 2515.67,1925.82 2514.75,1928.67 2513.78,1931.49 2512.77,1934.29 2511.7,1937.06 2510.59,1939.81 2509.44,1942.52 2508.23,1945.21 2506.98,1947.86 2505.68,1950.49 2504.34,1953.08 2502.95,1955.64 2501.52,1958.16 2500.04,1960.64 2498.51,1963.09 2496.94,1965.5 2495.32,1967.87 2493.66,1970.19 2491.96,1972.48 2490.21,1974.72 2488.42,1976.92 2486.58,1979.07 2484.71,1981.18 2482.78,1983.24 2480.82,1985.25 1344.94,849.369 1346.9,847.359 1348.83,845.299 1350.7,843.192 1352.54,841.039 1354.33,838.841 1356.08,836.598 1357.78,834.311 1359.44,831.983 1361.06,829.615 1362.63,827.207 1364.15,824.76 1365.64,822.275 1367.07,819.753 1368.46,817.197 1369.8,814.607 1371.1,811.983 1372.35,809.327 1373.55,806.64 1374.71,803.924 1375.82,801.179 1376.89,798.407 1377.9,795.608 1378.87,792.784 1379.79,789.935 1380.66,787.064 1381.48,784.17 1382.25,781.256 1382.98,778.321 1383.65,775.368 1384.28,772.399 1384.86,769.412 "/>
     <path id="_330511336" class="fil1" d="M1764.01 1667.1l0 0zm-1135.88 -1135.88l0 0z"/>
     <path id="_330511000" class="fil1" d="M1764.28 1666.84l0 0zm-1135.88 -1135.88l0 0z"/>
     <polygon id="_330511144" class="fil1" points="955.624,775.316 2091.5,1911.2 2090.59,1915.04 2089.58,1918.81 2088.49,1922.5 2087.3,1926.13 2086.03,1929.69 2084.67,1933.18 2083.22,1936.59 2081.7,1939.94 2080.09,1943.22 2078.4,1946.42 2076.64,1949.56 2074.8,1952.62 2072.89,1955.62 2070.9,1958.55 2068.85,1961.4 2066.72,1964.18 2064.53,1966.9 2062.27,1969.54 2059.95,1972.12 2057.57,1974.62 2055.13,1977.05 2052.63,1979.41 2050.07,1981.71 2047.46,1983.93 2044.79,1986.08 2042.07,1988.16 2039.31,1990.17 2036.49,1992.11 2033.63,1993.98 2030.72,1995.79 2027.77,1997.51 2024.78,1999.18 888.901,863.293 891.892,861.633 894.842,859.903 897.748,858.102 900.611,856.231 903.426,854.291 906.193,852.279 908.911,850.197 911.577,848.046 914.189,845.823 916.746,843.531 919.248,841.169 921.69,838.736 924.072,836.233 926.392,833.659 928.648,831.016 930.84,828.302 932.964,825.518 935.02,822.663 937.005,819.738 938.918,816.742 940.757,813.677 942.52,810.542 944.207,807.335 945.815,804.058 947.34,800.712 948.785,797.295 950.144,793.808 951.419,790.25 952.606,786.622 953.703,782.924 954.709,779.155 "/>
     <polygon id="_330511600" class="fil1" points="1285.35,880.594 2421.23,2016.48 2421.23,2307.54 1285.35,1171.65 "/>
     <path id="_330511696" class="fil1" d="M2135.81 1667.14l0 0zm-1135.88 -1135.88l0 0z"/>
     <path id="_330511216" class="fil1" d="M2138.24 1670.04l0 0zm-1135.88 -1135.88l0 0z"/>
     <path id="_330511048" class="fil1" d="M2136.96 1668.39l0 0zm-1135.88 -1135.88l0 0z"/>
     <path id="_330511408" class="fil1" d="M2137.74 1669.35l0 0zm-1135.88 -1135.88l0 0z"/>
     <polygon id="_330511240" class="fil1" points="1002.14,533.849 2138.02,1669.73 2138.07,1669.81 1002.19,533.925 "/>
     <polygon id="_330511384" class="fil1" points="1002.19,533.925 2138.07,1669.81 2138.13,1669.88 1002.25,534.002 "/>
     <polygon id="_330512176" class="fil1" points="1002.25,534.002 2138.13,1669.88 2138.18,1669.96 1002.3,534.077 "/>
     <polygon id="_330512320" class="fil1" points="1002.3,534.077 2138.18,1669.96 2138.24,1670.04 1002.36,534.154 "/>
     <polygon id="_330511936" class="fil1" points="1002.36,534.154 2138.24,1670.04 2138.29,1670.11 1002.41,534.231 "/>
     <polygon id="_330512392" class="fil1" points="1002.41,534.231 2138.29,1670.11 2138.34,1670.19 1002.46,534.307 "/>
     <polygon id="_330512008" class="fil1" points="1002.46,534.307 2138.34,1670.19 2139.03,1671.26 2139.66,1672.37 2140.21,1673.5 2140.7,1674.66 2141.12,1675.84 2141.47,1677.04 2141.75,1678.25 2141.97,1679.48 2142.11,1680.71 2142.18,1681.96 2142.19,1683.2 2142.12,1684.45 2141.99,1685.69 2141.78,1686.92 2141.5,1688.15 2141.15,1689.36 1005.27,553.478 1005.62,552.266 1005.9,551.043 1006.1,549.807 1006.24,548.566 1006.31,547.321 1006.3,546.075 1006.23,544.832 1006.09,543.596 1005.87,542.369 1005.59,541.153 1005.24,539.954 1004.82,538.774 1004.33,537.616 1003.78,536.483 1003.15,535.38 "/>
     <polygon id="_330511888" class="fil1" points="1000.5,531.848 2136.38,1667.73 2136.4,1667.76 1000.52,531.877 "/>
     <polygon id="_330511768" class="fil1" points="1310.28,1180.58 2446.16,2316.47 2447.93,2318.5 2449.45,2320.8 2450.72,2323.4 2451.72,2326.29 2452.46,2329.51 2452.9,2333.06 2453.06,2336.97 1317.17,1201.08 1317.02,1197.18 1316.58,1193.62 1315.84,1190.41 1314.84,1187.51 1313.57,1184.92 1312.04,1182.62 "/>
     <polygon id="_330511960" class="fil1" points="888.901,863.293 2024.78,1999.18 2023.17,2000.03 2021.54,2000.87 2019.9,2001.69 2018.25,2002.49 2016.59,2003.26 2014.92,2004.02 2013.24,2004.75 2011.56,2005.47 2009.86,2006.16 2008.15,2006.83 2006.44,2007.49 2004.71,2008.12 2002.98,2008.73 2001.24,2009.32 1999.49,2009.89 1997.73,2010.44 1995.97,2010.97 1994.2,2011.48 1992.43,2011.97 1990.64,2012.44 1988.86,2012.88 1987.06,2013.31 1985.26,2013.72 1983.46,2014.1 1981.65,2014.47 1979.83,2014.81 1978.02,2015.14 1976.19,2015.44 1974.37,2015.72 1972.54,2015.99 1970.7,2016.23 1968.87,2016.45 832.986,880.567 834.823,880.346 836.656,880.104 838.485,879.842 840.312,879.558 842.135,879.255 843.954,878.931 845.768,878.586 847.577,878.221 849.382,877.835 851.181,877.43 852.975,877.002 854.763,876.555 856.546,876.087 858.322,875.599 860.091,875.09 861.853,874.561 863.61,874.011 865.358,873.44 867.098,872.848 868.83,872.236 870.555,871.605 872.271,870.951 873.977,870.278 875.676,869.585 877.364,868.87 879.043,868.135 880.712,867.38 882.372,866.604 884.02,865.807 885.659,864.989 887.285,864.152 "/>
     <polygon id="_330511792" class="fil1" points="832.986,880.567 1968.87,2016.45 1968.87,2307.54 832.986,1171.65 "/>
     <polygon id="_330512080" class="fil1" points="1317.17,1380.53 2453.06,2516.41 2453.08,2521.24 2453.14,2525.94 2453.25,2530.53 2453.39,2535.01 2453.58,2539.4 2453.81,2543.69 2454.07,2547.91 2454.38,2552.05 2454.72,2556.12 2455.09,2560.13 2455.5,2564.09 2455.95,2568.01 2456.43,2571.9 2456.94,2575.76 2457.48,2579.6 2458.06,2583.43 2458.66,2587.25 2459.3,2591.08 2459.97,2594.92 2460.66,2598.78 2461.38,2602.67 2462.12,2606.6 2462.89,2610.57 2463.69,2614.59 2464.51,2618.67 2465.35,2622.82 2466.22,2627.04 2467.11,2631.34 2468.02,2635.74 2468.94,2640.24 2469.89,2644.84 2470.86,2649.56 1334.98,1513.68 1334.01,1508.96 1333.06,1504.36 1332.13,1499.86 1331.23,1495.46 1330.34,1491.16 1329.47,1486.93 1328.63,1482.79 1327.81,1478.7 1327.01,1474.68 1326.24,1470.71 1325.5,1466.79 1324.78,1462.9 1324.08,1459.04 1323.42,1455.2 1322.78,1451.37 1322.18,1447.54 1321.6,1443.72 1321.06,1439.88 1320.55,1436.02 1320.07,1432.13 1319.62,1428.21 1319.21,1424.25 1318.83,1420.24 1318.5,1416.16 1318.19,1412.02 1317.93,1407.81 1317.7,1403.52 1317.51,1399.13 1317.37,1394.65 1317.26,1390.06 1317.2,1385.36 "/>
     <polygon id="_330512272" class="fil1" points="864.809,1201.08 2000.69,2336.97 2000.69,2516.41 864.809,1380.53 "/>
     <polygon id="_330513184" class="fil1" points="857.914,1180.58 1993.8,2316.46 1995.56,2318.5 1997.08,2320.8 1998.35,2323.39 1999.36,2326.29 2000.09,2329.51 2000.54,2333.06 2000.69,2336.97 864.809,1201.08 864.657,1197.18 864.21,1193.62 863.476,1190.41 862.47,1187.51 861.2,1184.92 859.678,1182.62 "/>
     <polygon id="_330512776" class="fil1" points="864.809,1380.53 2000.69,2516.41 2000.71,2521.24 2000.78,2525.94 2000.88,2530.53 2001.03,2535.01 2001.22,2539.4 2001.44,2543.69 2001.71,2547.91 2002.01,2552.05 2002.35,2556.12 2002.72,2560.13 2003.14,2564.09 2003.58,2568.01 2004.06,2571.9 2004.57,2575.76 2005.12,2579.6 2005.69,2583.43 2006.3,2587.25 2006.93,2591.08 2007.6,2594.92 2008.29,2598.78 2009.01,2602.67 2009.76,2606.6 2010.53,2610.57 2011.32,2614.59 2012.15,2618.67 2012.99,2622.82 2013.85,2627.04 2014.74,2631.34 2015.65,2635.74 2016.58,2640.24 2017.53,2644.84 2018.49,2649.56 882.609,1513.68 881.644,1508.96 880.697,1504.36 879.768,1499.86 878.86,1495.46 877.973,1491.16 877.107,1486.93 876.264,1482.79 875.443,1478.7 874.647,1474.68 873.876,1470.71 873.129,1466.79 872.41,1462.9 871.717,1459.04 871.053,1455.2 870.418,1451.37 869.812,1447.54 869.236,1443.72 868.692,1439.88 868.179,1436.02 867.701,1432.13 867.255,1428.21 866.844,1424.25 866.468,1420.24 866.128,1416.16 865.825,1412.02 865.561,1407.81 865.334,1403.52 865.148,1399.13 865,1394.65 864.895,1390.06 864.83,1385.36 "/>
     <polygon id="_330513280" class="fil1" points="882.609,1513.68 2018.49,2649.56 2018.08,2658.22 2016.88,2666.3 2014.95,2673.81 2012.34,2680.75 2009.09,2687.11 2005.27,2692.91 2000.93,2698.13 1996.11,2702.8 1990.87,2706.89 1985.27,2710.42 1979.35,2713.39 1973.17,2715.8 1966.78,2717.66 1960.24,2718.95 1953.58,2719.69 1946.88,2719.88 1940.17,2719.51 1933.52,2718.59 1926.97,2717.12 1920.58,2715.11 1914.4,2712.55 1908.49,2709.45 1902.88,2705.8 1897.65,2701.61 761.764,1565.73 767.001,1569.92 772.605,1573.56 778.522,1576.67 784.703,1579.23 791.092,1581.24 797.64,1582.71 804.292,1583.63 810.997,1583.99 817.703,1583.81 824.355,1583.07 830.903,1581.77 837.292,1579.92 843.473,1577.51 849.39,1574.54 854.994,1571.01 860.231,1566.91 865.047,1562.25 869.391,1557.02 873.212,1551.23 876.455,1544.86 879.068,1537.93 881,1530.42 882.198,1522.34 "/>
     <polygon id="_330512656" class="fil1" points="1334.98,1513.68 2470.86,2649.56 2470.45,2658.22 2469.25,2666.3 2467.32,2673.81 2464.7,2680.75 2461.46,2687.11 2457.64,2692.91 2453.29,2698.13 2448.48,2702.8 2443.24,2706.89 2437.64,2710.42 2431.72,2713.39 2425.54,2715.8 2419.15,2717.66 2412.6,2718.95 2405.95,2719.69 2399.24,2719.88 2392.54,2719.51 2385.89,2718.59 2379.34,2717.12 2372.95,2715.11 2366.77,2712.55 2360.85,2709.45 2355.25,2705.8 2350.01,2701.61 1214.13,1565.73 1219.37,1569.92 1224.97,1573.56 1230.89,1576.67 1237.07,1579.23 1243.46,1581.24 1250.01,1582.71 1256.66,1583.63 1263.36,1583.99 1270.07,1583.81 1276.72,1583.07 1283.27,1581.77 1289.66,1579.92 1295.84,1577.51 1301.76,1574.54 1307.36,1571.01 1312.6,1566.91 1317.41,1562.25 1321.76,1557.02 1325.58,1551.23 1328.82,1544.86 1331.43,1537.93 1333.37,1530.42 1334.56,1522.34 "/>
     <polygon id="_330512584" class="fil1" points="1317.17,1201.08 2453.06,2336.97 2453.06,2516.41 1317.17,1380.53 "/>
     <polygon id="_330512632" class="fil1" points="1000.59,531.946 2136.47,1667.83 2136.53,1667.9 1000.65,532.017 "/>
     <polygon id="_330512704" class="fil1" points="1000.65,532.017 2136.53,1667.9 2136.6,1667.97 1000.72,532.088 "/>
     <polygon id="_330513136" class="fil1" points="1000.72,532.088 2136.6,1667.97 2136.66,1668.04 1000.78,532.159 "/>
     <polygon id="_330512848" class="fil1" points="1000.78,532.159 2136.66,1668.04 2136.69,1668.07 1000.81,532.189 "/>
     <polygon id="_330512992" class="fil1" points="1000.81,532.189 2136.69,1668.07 2136.72,1668.11 1000.84,532.23 "/>
     <polygon id="_330513064" class="fil1" points="1000.84,532.23 2136.72,1668.11 2136.79,1668.18 1000.9,532.302 "/>
     <polygon id="_330513688" class="fil1" points="1000.9,532.302 2136.79,1668.18 2136.91,1668.33 1001.03,532.445 "/>
     <polygon id="_330513592" class="fil1" points="1001.03,532.445 2136.91,1668.33 2136.97,1668.4 1001.09,532.517 "/>
     <polygon id="_330513712" class="fil1" points="1001.09,532.517 2136.97,1668.4 2137.03,1668.47 1001.15,532.589 "/>
     <polygon id="_330513328" class="fil1" points="1001.15,532.589 2137.03,1668.47 2137.15,1668.62 1001.27,532.734 "/>
     <polygon id="_330513616" class="fil1" points="1001.27,532.734 2137.15,1668.62 2137.21,1668.69 1001.33,532.807 "/>
     <polygon id="_330513664" class="fil1" points="1001.33,532.807 2137.21,1668.69 2137.23,1668.71 1001.35,532.826 "/>
     <polygon id="_330513448" class="fil1" points="1001.35,532.826 2137.23,1668.71 2137.27,1668.76 1001.39,532.881 "/>
     <polygon id="_330513760" class="fil1" points="1001.39,532.881 2137.27,1668.76 2137.33,1668.84 1001.45,532.954 "/>
     <polygon id="_330513808" class="fil1" points="1001.45,532.954 2137.33,1668.84 2137.39,1668.91 1001.51,533.027 "/>
     <polygon id="_330513376" class="fil1" points="1001.51,533.027 2137.39,1668.91 2137.45,1668.98 1001.57,533.1 "/>
     <polygon id="_330514192" class="fil1" points="1001.57,533.1 2137.45,1668.98 2137.49,1669.03 1001.61,533.152 "/>
     <polygon id="_330514288" class="fil1" points="1001.61,533.152 2137.49,1669.03 2137.51,1669.06 1001.63,533.175 "/>
     <polygon id="_330514216" class="fil1" points="1001.63,533.175 2137.51,1669.06 2137.57,1669.13 1001.69,533.249 "/>
     <polygon id="_330514264" class="fil1" points="1001.69,533.249 2137.57,1669.13 2137.63,1669.21 1001.74,533.324 "/>
     <polygon id="_330514360" class="fil1" points="1001.74,533.324 2137.63,1669.21 2137.68,1669.28 1001.8,533.398 "/>
     <polygon id="_330514432" class="fil1" points="1001.8,533.398 2137.68,1669.28 2137.75,1669.36 1001.87,533.482 "/>
     <polygon id="_330514600" class="fil1" points="1001.87,533.482 2137.75,1669.36 2137.8,1669.43 1001.91,533.547 "/>
     <polygon id="_330514816" class="fil1" points="1001.91,533.547 2137.8,1669.43 2137.85,1669.5 1001.97,533.622 "/>
     <polygon id="_330514096" class="fil1" points="1001.97,533.622 2137.85,1669.5 2137.91,1669.58 1002.03,533.698 "/>
     <polygon id="_330514144" class="fil1" points="1002.03,533.698 2137.91,1669.58 2137.96,1669.66 1002.08,533.774 "/>
     <polygon id="_330514960" class="fil1" points="1002.08,533.774 2137.96,1669.66 2137.99,1669.7 1002.11,533.815 "/>
     <polygon id="_330515128" class="fil1" points="1002.11,533.815 2137.99,1669.7 2138.02,1669.73 1002.14,533.849 "/>
     <polygon id="_330515056" class="fil1" points="1344.94,849.369 2480.82,1985.25 2479.3,1986.74 2477.76,1988.21 2476.2,1989.64 2474.61,1991.04 2473,1992.42 2471.37,1993.76 2469.71,1995.07 2468.04,1996.35 2466.33,1997.6 2464.61,1998.82 2462.87,2000 2461.1,2001.15 2459.31,2002.27 2457.5,2003.35 2455.67,2004.4 2453.81,2005.41 2451.93,2006.39 2450.04,2007.33 2448.12,2008.23 2446.17,2009.1 2444.21,2009.93 2442.23,2010.72 2440.22,2011.48 2438.19,2012.19 2436.15,2012.87 2434.08,2013.51 2431.99,2014.1 2429.88,2014.66 2427.75,2015.18 2425.6,2015.65 2423.43,2016.09 2421.23,2016.48 1285.35,880.594 1287.55,880.203 1289.72,879.771 1291.87,879.296 1294,878.78 1296.11,878.222 1298.2,877.626 1300.27,876.988 1302.31,876.311 1304.34,875.596 1306.35,874.841 1308.33,874.048 1310.29,873.218 1312.23,872.35 1314.15,871.445 1316.05,870.505 1317.93,869.527 1319.78,868.515 1321.62,867.467 1323.43,866.385 1325.22,865.269 1326.99,864.119 1328.73,862.935 1330.45,861.72 1332.15,860.47 1333.83,859.19 1335.49,857.878 1337.12,856.535 1338.73,855.161 1340.32,853.757 1341.88,852.324 1343.42,850.861 "/>
    </g>
    <path id="_451242992" class="fil1" d="M1128.8 497.417l275.503 0c12.1441,0 21.9898,9.8445 21.9898,21.9898 0,48.3248 -31.4044,189.965 -40.9111,247.003 -5.34804,32.1 -19.2603,61.7752 -40.4445,82.9595 -16.0642,16.0642 -36.0981,27.2835 -59.5855,31.2248l0 291.06c18.7276,1.63701 31.8213,7.61575 31.8213,29.4284l0 179.45c0,52.1327 7.40906,82.1835 17.8004,133.143 0,95.4473 -143.223,92.3127 -143.223,-0.744095 10.0795,-50.2713 17.8016,-81.5493 17.8016,-132.96l0 -180.567c0,-21.8138 13.0925,-26.8831 31.8213,-28.0394l0 -291.96c-20.8996,-4.73504 -38.8819,-15.3638 -53.5548,-30.0355 -21.1831,-21.1843 -35.0953,-50.8595 -40.4445,-82.9595l-40.565 -243.396 -0.0448819 0.00708662c-1.99606,-11.9787 6.09567,-23.3091 18.0744,-25.3051 1.33228,-0.220866 2.6563,-0.318898 3.96142,-0.298819zm-502.177 35.4827l0 0zm0.245669 -0.297638l0 0zm1.26142 -1.37953l0 0zm0.271654 -0.26811l0 0zm370.604 -0.572835l0 0zm0.921261 0.872835l0 0zm2.42599 2.89961l0 0zm-1.27441 -1.64882l0 0zm0.777166 0.967324l0 0zm0.279921 0.376772l0.0543308 0.0755906 0.0555119 0.0767717 0.0531496 0.0755906 0.0543308 0.0767717 0.0531496 0.0767717 0.0531496 0.0767717c3.86457,5.62678 4.86496,12.7512 2.80512,19.1705l-49.643 221.838c-9.24686,41.3244 -34.6016,70.6441 -66.7229,87.9768 -17.1732,9.26576 -36.313,15.0225 -55.9146,17.2736l0 291.088c18.7299,1.63583 31.8225,7.61457 31.8225,29.4284l0 179.45c0,52.1327 7.40788,82.1835 17.8004,133.143 0,95.4473 -143.223,92.3127 -143.223,-0.744095 10.0784,-50.2713 17.8004,-81.5493 17.8004,-132.96l0 -180.567c0,-21.8138 13.0925,-26.8831 31.8213,-28.0394l0 -291.608c-17.4827,-2.66929 -34.4693,-8.1567 -49.8744,-16.4669 -32.1272,-17.3339 -57.4843,-46.6548 -66.73,-87.9733l-50.1603 -223.762c-1.38898,-6.20434 -0.00472441,-12.3827 3.32835,-17.2417l0.0555119 -0.080315 0.0555119 -0.080315 0.056693 -0.080315 0.056693 -0.080315 0.056693 -0.0791339 0.0578741 -0.0791339 0.0366142 -0.0519685 0.0200788 -0.0271654 0.0590552 -0.0791339 0.0578741 -0.0791339 0.0590552 -0.0779528 0.0271654 -0.0377953 0.0318898 -0.0401575 0.0590552 -0.0779528 0.0602363 -0.0779528 0.120473 -0.153543 0.0602363 -0.0767717 0.0614174 -0.0767717 0.068504 -0.0862205 0.0543308 -0.0661418 0.0625985 -0.0755906 0.0625985 -0.0755906 0.0625985 -0.0755906 0.0637796 -0.0744095 0.0625985 -0.0744095 0.0637796 -0.0744095 0.0496063 -0.0578741 0.0153543 -0.0165354 0.0637796 -0.0732284 0.0649607 -0.0744095 0.0661418 -0.0732284 0.0377953 -0.0437008 0.0271654 -0.0295276 0.0661418 -0.0720473 0.0661418 -0.0720473 0.0661418 -0.0720473 0.0271654 -0.0307087 0.0401575 -0.0413386 0.0673229 -0.0720473 0.0673229 -0.0708662 0.0673229 -0.0708662 0.0165354 -0.0177165 0.0519685 -0.0531496 0.068504 -0.0708662 0.068504 -0.0696851 0.0732284 -0.0744095 0.0661418 -0.0649607 0.0696851 -0.0696851 0.0696851 -0.068504 0.0708662 -0.068504 0.0708662 -0.068504 0.0708662 -0.0673229 0.0708662 -0.068504 0.0507874 -0.0472441 0.0212599 -0.0200788 0.144095 -0.133465 0.0732284 -0.0661418 0.0389764 -0.0354331 0.034252 -0.0307087 0.0732284 -0.0661418 0.147638 -0.131102 0.0259843 -0.022441 0.0484252 -0.0425197 0.0744095 -0.0649607 0.0744095 -0.0637796 0.0755906 -0.0637796 0.0129921 -0.011811 0.0625985 -0.0519685 0.0755906 -0.0637796 0.0755906 -0.0625985 0.0767717 -0.0625985c48.5634,-46.0146 112.407,-65.7012 175.994,-65.7012 71.6138,0 143.449,25.1799 192.523,65.83l0.0259843 -0.011811 0.0755906 0.0625985 0.0744095 0.0625985 0.0744095 0.0637796 0.0744095 0.0625985 0.0318898 0.0271654 0.0425197 0.0366142 0.0732284 0.0637796 0.0732284 0.0649607 0.0732284 0.0637796 0.0720473 0.0649607 0.0720473 0.0649607 0.142913 0.131102 0.0708662 0.0649607 0.0200788 0.0188977 0.0507874 0.0472441 0.140551 0.132284 0.0696851 0.0673229 0.0496063 0.0472441 0.0200788 0.0188977 0.068504 0.0673229 0.137008 0.135827 0.0767717 0.0767717 0.0590552 0.0590552 0.133465 0.137008 0.0673229 0.068504 0.0366142 0.0389764 0.0295276 0.0307087 0.0649607 0.068504 0.168898 0.18189 0.0259843 0.0283465 0.0649607 0.0696851 0.0637796 0.0708662 0.0637796 0.0708662 0.0637796 0.0708662 0.0259843 0.0295276 0.0366142 0.0413386 0.0625985 0.0720473 0.124016 0.142913 0.0614174 0.0720473 0.0614174 0.0720473 0.121654 0.145276 0.0602363 0.0732284 0.0165354 0.0188977 0.0425197 0.0543308 0.0602363 0.0732284 0.0590552 0.0732284 0.0578741 0.0732284 0.0413386 0.0519685 0.0177165 0.022441 0.0578741 0.0744095 0.0578741 0.0744095 0.056693 0.0744095 0.0649607 0.0838583 0.0484252 0.0649607 0.056693 0.0755906 0.0555119 0.0755906 0.0555119 0.0755906 0.0307087 0.0413386 0.0248032 0.034252z"/>
   </g>
  </g>
  <path class="fil2" d="M1024 -0.0011811c565.539,0 1024,458.462 1024,1024 0,565.539 -458.462,1024 -1024,1024 -565.539,0 -1024,-458.462 -1024,-1024 0,-565.539 458.462,-1024 1024,-1024z"/>
  <path class="fil3" d="M832.985 877.251c0,-12.1441 -9.84568,-21.9898 -21.9886,-21.9898 -12.1441,0 -21.9898,9.84568 -21.9898,21.9898l0 347.786c0,12.1441 9.84568,21.9898 21.9898,21.9898 12.1429,0 21.9886,-9.84568 21.9886,-21.9898l0 -347.786z"/>
  <path class="fil4" d="M629.809 529.701c48.5634,-46.0134 112.407,-65.7012 175.994,-65.7012 71.6138,0 143.449,25.1799 192.523,65.83l-14.0008 16.9217 14.0268 -16.9347c7.1256,5.90315 9.57757,15.3567 6.913,23.6599l-49.643 221.84c-9.24686,41.3244 -34.6016,70.6441 -66.7229,87.9768 -22.6855,12.2398 -48.8055,18.3591 -74.8843,18.3579 -26.0776,0 -52.1965,-6.12284 -74.8831,-18.3614 -32.1272,-17.3339 -57.4843,-46.6548 -66.7288,-87.9733l-50.0788 -223.781 -0.0826772 0.0188977c-1.88032,-8.40237 1.32165,-16.7563 7.56733,-21.8528z"/>
  <path class="fil5" d="M629.809 529.701c48.5634,-46.0146 112.407,-65.7012 175.994,-65.7012 71.6138,0 143.449,25.1799 192.523,65.83l-7.07717 8.55355c-46.1386,15.7382 -108.542,25.3984 -177.239,25.3984 -74.4331,0 -141.469,-11.3445 -188.44,-29.4697 1.1811,-1.72205 2.60551,-3.27756 4.23898,-4.61103zm361.451 8.67875l7.09253 -8.56182c1.60984,1.33228 2.97992,2.84764 4.10788,4.48937 -3.62008,1.39725 -7.34764,2.75788 -11.2004,4.07244z"/>
  <path class="fil6" d="M810.996 1171.04c29.6398,0 53.8111,0.405118 53.8111,30.0437l0 179.45c0,52.1327 7.40788,82.1835 17.8004,133.143 0,95.4473 -143.223,92.3127 -143.223,-0.744095 10.0784,-50.2713 17.8004,-81.5493 17.8004,-132.96l0 -180.567c0,-29.6398 24.1713,-28.3654 53.8111,-28.3654zm0 317.422c13.7433,0 24.8847,11.1413 24.8847,24.8847 0,13.7445 -11.1413,24.8858 -24.8847,24.8858 -13.7445,0 -24.8858,-11.1413 -24.8858,-24.8858 0,-13.7433 11.1413,-24.8847 24.8858,-24.8847z"/>
  <path class="fil3" d="M1285.35 877.251c0,-12.1441 -9.84568,-21.9898 -21.9898,-21.9898 -12.1441,0 -21.9898,9.84568 -21.9898,21.9898l0 347.786c0,12.1441 9.84568,21.9898 21.9898,21.9898 12.1441,0 21.9898,-9.84568 21.9898,-21.9898l0 -347.786z"/>
  <path class="fil4" d="M1128.8 497.417l275.503 0c12.1441,0 21.9898,9.84568 21.9898,21.9886 0,1.74213 -0.20315,3.43701 -0.585827,5.06221l-40.324 241.942c-5.3504,32.1 -19.2614,61.7752 -40.4457,82.9607 -20.2335,20.2323 -46.7599,32.7803 -78.5587,32.7803 -31.8,0 -58.3252,-12.548 -78.5599,-32.7815 -21.1831,-21.1843 -35.0965,-50.8595 -40.4445,-82.9595l-40.565 -243.396 21.6449 -3.60827 -21.6898 3.61536c-1.99606,-11.9787 6.09686,-23.3091 18.0744,-25.3051 1.33228,-0.220866 2.6563,-0.317717 3.96142,-0.298819zm148.573 68.2347c0,-6.07087 -4.92402,-10.9937 -10.9949,-10.9937 -6.07205,0 -10.9949,4.92284 -10.9949,10.9937l0 165.509c0,6.07205 4.92284,10.9949 10.9949,10.9949 6.07087,0 10.9949,-4.92284 10.9949,-10.9949l0 -165.509zm-71.4225 -0.540945c-1.1374,-5.95276 -6.88819,-9.85631 -12.841,-8.71772 -5.95276,1.1374 -9.85631,6.88819 -8.7189,12.841l31.5815 162.468c1.13858,5.95276 6.88819,9.85631 12.841,8.71772 5.95394,-1.1374 9.85631,-6.88701 8.7189,-12.841l-31.5815 -162.468zm142.414 4.12323c1.13858,-5.95276 -2.76496,-11.7036 -8.71772,-12.841 -5.95394,-1.13858 -11.7036,2.76496 -12.841,8.71772l-31.5815 162.468c-1.13858,5.95394 2.76496,11.7036 8.71772,12.841 5.95394,1.13858 11.7036,-2.76496 12.841,-8.71772l31.5815 -162.468z"/>
  <path class="fil6" d="M1263.36 1171.04c29.6386,0 53.8099,0.405118 53.8099,30.0437l0 179.45c0,52.1327 7.40906,82.1835 17.8004,133.143 0,95.4473 -143.223,92.3127 -143.223,-0.744095 10.0795,-50.2713 17.8016,-81.5493 17.8016,-132.96l0 -180.567c0,-29.6398 24.1713,-28.3654 53.8111,-28.3654zm-0.0011811 317.422c13.7445,0 24.8858,11.1413 24.8858,24.8847 0,13.7445 -11.1413,24.8858 -24.8858,24.8858 -13.7433,0 -24.8847,-11.1413 -24.8847,-24.8858 0,-13.7433 11.1413,-24.8847 24.8847,-24.8847z"/>
  <rect class="fil7" x="800.537" y="1223.99" width="20.9166" height="203.193"/>
  <rect class="fil7" x="1255.92" y="1223.99" width="20.9166" height="203.193"/>
 </g>
</svg>
