<svg id="ICON" xmlns="http://www.w3.org/2000/svg" viewBox="0 0 512 512"><defs><style>.cls-1{fill:#d9dcde;}.cls-2{fill:#d2d8c7;}.cls-3{fill:#d5d480;}.cls-4{fill:#bebfc0;}.cls-5{fill:#b3af80;}.cls-6{fill:#d3aaa4;}.cls-7{fill:#b89591;}.cls-8{fill:#d6cfd3;}.cls-9{fill:#e8ba9e;}.cls-10{fill:#ac8760;}.cls-11{fill:#e7d046;}.cls-12{fill:#c7af3f;}</style></defs><title>Cooking</title><path class="cls-1" d="M189.34,162.39s49.2,115.25,49.2,186.22v23.18L323.1,368S228.78,173.3,196.33,153.38Z"/><path class="cls-2" d="M431.05,275.24a163.39,163.39,0,0,1-10.35,57.45q-2.58,7-5.83,13.65a164,164,0,0,1-311.94-71.1Z"/><path class="cls-3" d="M111.86,328.77c10.43-5.58,24.93-9,41-9,29.39,0,53.62,11.63,57.05,26.62a14.94,14.94,0,0,1,.44,3.65c0,16.74-25.75,30.29-57.49,30.29a107.65,107.65,0,0,1-12.48-.72,164.83,164.83,0,0,1-21.26-33.22Z"/><ellipse class="cls-3" cx="267.83" cy="352.54" rx="57.5" ry="30.28"/><path class="cls-3" d="M420.7,332.69c-10.13-4.67-23.36-7.5-37.88-7.5-25.7,0-47.49,8.9-54.82,21.15a17.48,17.48,0,0,0-2.67,9.12c0,16.74,25.75,30.29,57.49,30.29,1.88,0,3.71,0,5.55-.13a163.87,163.87,0,0,0,26.5-39.28Z"/><path class="cls-3" d="M414.87,346.34a164.14,164.14,0,0,1-295.76,0Z"/><path class="cls-4" d="M160.36,320.06a343,343,0,0,1-7-44.82H102.93a163.71,163.71,0,0,0,8.78,53.06c10.35-5.3,24.47-8.58,40.06-8.58C154.69,319.72,157.55,319.84,160.36,320.06Z"/><path class="cls-5" d="M233.07,435.76C189.53,418.2,169.38,361.07,160.34,320c-2.8-.22-5.65-.26-8.57-.26-15.59,0-29.71,3.28-40.06,8.58A164.32,164.32,0,0,0,233.07,435.76Z"/><path class="cls-6" d="M234.63,104,209.21,136.8l-12.88,16.59-7,9-6.57,8.46a13.85,13.85,0,0,1-1.41,1.54,13.67,13.67,0,0,1-8.48,3.75l0,0h0a13.87,13.87,0,0,1-9.59-2.85l-82.48-64-8.85-6.87A243.07,243.07,0,0,1,159.39,28l72.78,56.5A13.9,13.9,0,0,1,234.63,104Z"/><path class="cls-7" d="M189.34,162.39l-6.57,8.46a13.85,13.85,0,0,1-1.41,1.54,13.67,13.67,0,0,1-8.48,3.75l0,0h0a13.87,13.87,0,0,1-9.59-2.85l-82.48-64-8.85-6.87A238.51,238.51,0,0,1,88.43,82.05l89.2,69.34Z"/><rect class="cls-8" x="171.39" y="139.27" width="45.37" height="28.75" rx="14.38" transform="translate(434.45 94.57) rotate(127.83)"/><path class="cls-9" d="M422,427.35a235.62,235.62,0,0,1-27.31,19.94,240.68,240.68,0,0,1-255.46,0A235.5,235.5,0,0,1,112,427.35Z"/><path class="cls-10" d="M267,484a239.34,239.34,0,0,1-127.73-36.69H394.72A239.32,239.32,0,0,1,267,484Z"/><path class="cls-1" d="M415.34,201.18a73.56,73.56,0,0,1-9.14,6.24l3.39-34.78-30.85-3.48.6-5.28,2.88-25.6-19.32-4.92c24.13-18.59,55.12-19,69.69-.73C447.34,151.15,439.62,181.84,415.34,201.18Z"/><path class="cls-4" d="M432.59,132.63s-30.5,3.83-53.25,31.25l2.88-25.6-19.32-4.92C387,114.77,418,114.37,432.59,132.63Z"/><path class="cls-1" d="M374.47,109.08a72.4,72.4,0,0,1,.43,11L347.24,98.78,327.9,123.06l-4.16-3.31-20.15-16-14.44,13.75C286.23,87.14,302.36,60.68,325.56,58,349.09,55.38,371,78.23,374.47,109.08Z"/><path class="cls-4" d="M325.56,58s-12.95,27.88-1.82,61.72l-20.15-16-14.44,13.75C286.23,87.14,302.36,60.68,325.56,58Z"/><path class="cls-11" d="M357.7,199.55a34.33,34.33,0,0,1-29.69,34,32.28,32.28,0,0,1-4.64.33,34.34,34.34,0,0,1-19.89-62.35,33.93,33.93,0,0,1,9-4.59,34.49,34.49,0,0,1,10.85-1.75,35,35,0,0,1,7.5.82,33.94,33.94,0,0,1,10.55,4.3,34.48,34.48,0,0,1,11.34,11.45,33.64,33.64,0,0,1,3.88,9.25A34.5,34.5,0,0,1,357.7,199.55Z"/><path class="cls-11" d="M337.81,155.5a8,8,0,0,1-2.2,5.53l-4.74,5-17.72,18.72a8,8,0,0,1-11.69-11.07l2-2.13,10.38-10.95L323.92,150a8,8,0,0,1,13.89,5.52Z"/><rect class="cls-11" x="338.37" y="152.4" width="16.09" height="48.76" rx="8.04" transform="translate(216.52 -189.8) rotate(43.45)"/><rect class="cls-11" x="347.43" y="179.57" width="16.09" height="48.76" rx="8.04" transform="translate(237.69 -188.58) rotate(43.45)"/><path class="cls-12" d="M328,233.58a32.28,32.28,0,0,1-4.64.33,34.34,34.34,0,0,1-19.89-62.35l10.38-10.95c-.45,2-.91,4.12-1.34,6.36a130.71,130.71,0,0,0-2.24,19.72C309.77,203.86,313.41,222.29,328,233.58Z"/></svg>